<svg xmlns="http://www.w3.org/2000/svg" version="1.1" viewBox="-5.0 -10.0 110.0 135.0">
 <path d="m52.918 33.473c0 3.2227-2.6094 5.8359-5.832 5.8359-3.2227 0-5.832-2.6133-5.832-5.8359s2.6094-5.832 5.832-5.832c3.2227 0 5.832 2.6094 5.832 5.832"/>
 <path d="m52.918 62.641c-0.24219 0-0.48828-0.023437-0.72656-0.070313-1.1172-0.21094-2.0859-0.90234-2.6484-1.8906l-7.7773-13.609c-0.51172-0.89844-0.64844-1.957-0.375-2.9531 0.26953-0.99609 0.92578-1.8438 1.8203-2.3555 1.8672-1.0625 4.2422-0.41406 5.3086 1.4492l5.5234 9.6641 6.1719-4.9375h-0.003906c1.6797-1.3438 4.125-1.0703 5.4688 0.60547 1.3398 1.6758 1.0703 4.125-0.60938 5.4648l-9.7227 7.7773h0.003906c-0.69141 0.55469-1.5469 0.85547-2.4336 0.85547z"/>
 <path d="m45.141 65.555h3.8906v-3.9336c-0.12109-0.14844-0.23047-0.30078-0.33203-0.45703l-7.4453-13.031v19.398c0.91016-1.2383 2.3516-1.9727 3.8867-1.9766z"/>
 <path d="m65.613 83.992 6.5742-4.1797-8.3203-11.652c-0.73047-1.0234-1.9102-1.6328-3.168-1.6328h-15.559c-2.1367 0.015625-3.8633 1.75-3.8633 3.8906 0 2.1367 1.7266 3.875 3.8633 3.8867h13.551z"/>
 <path d="m83.973 70.883-1.9453 7.7773c-0.11719 0.48438-0.41797 0.90234-0.83594 1.168l-6.8828 4.3945-5.3672 3.4023-9.1367 5.8125h-0.003907c-0.89844 0.57031-2.0898 0.30469-2.668-0.59375-0.57422-0.89453-0.32031-2.0859 0.57031-2.6719l8.4766-5.3867 6.5703-4.1797 5.6953-3.6367 1.75-7.0195h0.003907c0.125-0.5 0.44141-0.93359 0.88281-1.1992 0.44141-0.26562 0.97266-0.34766 1.4727-0.22266 0.5 0.12109 0.92969 0.44141 1.1992 0.88281 0.26562 0.44141 0.34375 0.97266 0.21875 1.4727z"/>
 <path d="m54.863 76.25h-9.7227c-3.2227-0.003906-5.832-2.6133-5.8359-5.832v-48.191l-7.7773 3.1094v45.082c0.011718 7.5117 6.0977 13.602 13.613 13.609h9.7227c2.1367-0.011719 3.8633-1.75 3.8633-3.8867 0-2.1406-1.7266-3.875-3.8633-3.8906z"/>
 <path d="m17.918 29.586c-0.93359 0-1.7344-0.66406-1.9102-1.5781-0.17578-0.91406 0.32031-1.8281 1.1875-2.1719l48.609-19.445c0.99219-0.37891 2.1094 0.10547 2.5039 1.0938 0.39453 0.98828-0.078125 2.1094-1.0586 2.5195l-48.609 19.441c-0.23047 0.09375-0.47656 0.14063-0.72266 0.14063z"/>
<text x="0.0" y="117.5" font-size="5.0" font-weight="bold" font-family="Arbeit Regular, Helvetica, Arial-Unicode, Arial, Sans-serif" fill="#000000">Created by Martin Setiawan</text><text x="0.0" y="122.5" font-size="5.0" font-weight="bold" font-family="Arbeit Regular, Helvetica, Arial-Unicode, Arial, Sans-serif" fill="#000000">from Noun Project</text></svg>