<svg xmlns="http://www.w3.org/2000/svg" version="1.1" viewBox="-5.0 -10.0 110.0 135.0">
 <path d="m91.625 6.25c-0.13672 0.003906-0.27734 0.015625-0.41797 0.046875l-83.332 18.75c-1.1211 0.25391-1.8281 1.3711-1.5742 2.4961 0.25391 1.1211 1.3711 1.8281 2.4961 1.5742l39.121-8.8008v19.266h-8.332c-3.4531 0-6.25 2.7969-6.25 6.25v2.082h-8.332c-3.4492 0-6.25 2.8008-6.25 6.25v33.332c0 3.4492 2.8008 6.25 6.25 6.25h50c3.4492 0 6.25-2.8008 6.25-6.25v-33.332c0-3.4492-2.8008-6.25-6.25-6.25h-8.332v-2.082c0-3.4531-2.7969-6.25-6.25-6.25h-8.332v-20.207l40.043-9.0078c1.1211-0.25391 1.8281-1.3711 1.5742-2.4961-0.22266-0.98047-1.1055-1.6406-2.0781-1.6211zm-52.043 37.5h20.832c1.1484 0 2.082 0.93359 2.082 2.082v2.082h-25v-2.082c0-1.1484 0.93359-2.082 2.082-2.082zm-14.582 8.332h50c1.1484 0 2.082 0.93359 2.082 2.082v2.082h-54.168v-2.082c0-1.1484 0.93359-2.082 2.082-2.082zm-2.082 8.332h10.418v20.832h-10.418zm14.582 0h10.418v20.832h-10.418zm14.582 0h10.418v20.832h-10.418zm14.582 0h10.418v20.832h-10.418zm-43.75 25h54.168v2.082c0 1.1484-0.93359 2.082-2.082 2.082h-50c-1.1484 0-2.082-0.93359-2.082-2.082v-2.082z" fill-rule="evenodd"/>
<text x="0.0" y="117.5" font-size="5.0" font-weight="bold" font-family="Arbeit Regular, Helvetica, Arial-Unicode, Arial, Sans-serif" fill="#000000">Created by Ardiansyah</text><text x="0.0" y="122.5" font-size="5.0" font-weight="bold" font-family="Arbeit Regular, Helvetica, Arial-Unicode, Arial, Sans-serif" fill="#000000">from Noun Project</text></svg>